<svg width="30" height="30" viewBox="0 0 30 30" fill="none" xmlns="http://www.w3.org/2000/svg">
<path d="M2.50962 7.78867L15 0.57735L27.4904 7.78867V22.2113L15 29.4227L2.50962 22.2113V7.78867Z" fill="#FFFDFD" stroke="#548DE1"/>
<path d="M5.05682 20V11.2727H6.11364V15.6023H6.21591L10.1364 11.2727H11.517L7.85227 15.2102L11.517 20H10.2386L7.20455 15.9432L6.11364 17.1705V20H5.05682ZM14.6747 20.1534C14.2599 20.1534 13.8835 20.0753 13.5455 19.919C13.2074 19.7599 12.9389 19.5312 12.7401 19.233C12.5412 18.9318 12.4418 18.5682 12.4418 18.142C12.4418 17.767 12.5156 17.4631 12.6634 17.2301C12.8111 16.9943 13.0085 16.8097 13.2557 16.6761C13.5028 16.5426 13.7756 16.4432 14.0739 16.3778C14.375 16.3097 14.6776 16.2557 14.9815 16.2159C15.3793 16.1648 15.7017 16.1264 15.9489 16.1009C16.1989 16.0724 16.3807 16.0256 16.4943 15.9602C16.6108 15.8949 16.669 15.7812 16.669 15.6193V15.5852C16.669 15.1648 16.554 14.8381 16.3239 14.6051C16.0966 14.3722 15.7514 14.2557 15.2884 14.2557C14.8082 14.2557 14.4318 14.3608 14.1591 14.571C13.8864 14.7812 13.6946 15.0057 13.5838 15.2443L12.6293 14.9034C12.7997 14.5057 13.027 14.196 13.3111 13.9744C13.598 13.75 13.9105 13.5937 14.2486 13.5057C14.5895 13.4148 14.9247 13.3693 15.2543 13.3693C15.4645 13.3693 15.706 13.3949 15.9787 13.446C16.2543 13.4943 16.5199 13.5952 16.7756 13.7486C17.0341 13.902 17.2486 14.1335 17.419 14.4432C17.5895 14.7528 17.6747 15.1676 17.6747 15.6875V20H16.669V19.1136H16.6179C16.5497 19.2557 16.4361 19.4077 16.277 19.5696C16.1179 19.7315 15.9063 19.8693 15.642 19.983C15.3778 20.0966 15.0554 20.1534 14.6747 20.1534ZM14.8281 19.25C15.2259 19.25 15.5611 19.1719 15.8338 19.0156C16.1094 18.8594 16.3168 18.6577 16.456 18.4105C16.598 18.1634 16.669 17.9034 16.669 17.6307V16.7102C16.6264 16.7614 16.5327 16.8082 16.3878 16.8509C16.2457 16.8906 16.081 16.9261 15.8935 16.9574C15.7088 16.9858 15.5284 17.0114 15.3523 17.0341C15.179 17.054 15.0384 17.071 14.9304 17.0852C14.669 17.1193 14.4247 17.1747 14.1974 17.2514C13.973 17.3253 13.7912 17.4375 13.652 17.5881C13.5156 17.7358 13.4474 17.9375 13.4474 18.1932C13.4474 18.5426 13.5767 18.8068 13.8352 18.9858C14.0966 19.1619 14.4276 19.25 14.8281 19.25ZM20.516 16.0625V20H19.5103V13.4545H20.4819V14.4773H20.5671C20.7205 14.1449 20.9535 13.8778 21.266 13.6761C21.5785 13.4716 21.9819 13.3693 22.4762 13.3693C22.9194 13.3693 23.3072 13.4602 23.6396 13.642C23.9719 13.821 24.2305 14.0938 24.4151 14.4602C24.5998 14.8239 24.6921 15.2841 24.6921 15.8409V20H23.6864V15.9091C23.6864 15.3949 23.5529 14.9943 23.2859 14.7074C23.0188 14.4176 22.6523 14.2727 22.1864 14.2727C21.8654 14.2727 21.5785 14.3423 21.3256 14.4815C21.0756 14.6207 20.8782 14.8239 20.7333 15.0909C20.5884 15.358 20.516 15.6818 20.516 16.0625Z" fill="#548DE1"/>
</svg>
